<svg width="23" height="21" viewBox="0 0 23 21" fill="none" xmlns="http://www.w3.org/2000/svg">
<path d="M11.4571 20.1074C11.0804 20.1133 10.7156 19.9752 10.4371 19.7214C10.305 19.5916 10.2003 19.4365 10.1293 19.2654C10.0584 19.0943 10.0226 18.9106 10.0241 18.7254C10.0241 18.3504 10.1701 18.0044 10.4391 17.7474C10.8501 17.3504 15.5171 12.8904 16.9331 11.5374H2.45913C1.42413 11.5374 0.953125 10.8114 0.953125 10.1374C0.953125 9.45839 1.42413 8.73139 2.45913 8.73139H16.9311C15.5111 7.37839 10.9111 2.99539 10.4341 2.51839C10.1421 2.22739 9.98913 1.88339 9.99213 1.52239C9.99722 1.33816 10.0394 1.15686 10.1162 0.989327C10.193 0.821797 10.3029 0.671485 10.4391 0.54739C10.9401 0.0683904 11.7931 -0.13361 12.4761 0.55039C13.0371 1.11039 22.2411 9.88439 22.3321 9.97339L22.5051 10.1364L22.3331 10.2984C22.2401 10.3884 12.9261 19.2834 12.4731 19.7204C12.2091 19.9784 11.8341 20.1074 11.4571 20.1074Z" fill="#191919"/>
</svg>
